<mxfile host="app.diagrams.net" modified="2021-02-28T18:56:07.785Z" agent="5.0 (Macintosh; Intel Mac OS X 11_3_0) AppleWebKit/537.36 (KHTML, like Gecko) Chrome/88.0.4324.192 Safari/537.36" etag="xvZQvOBhQOB6yHiFsQuC" version="14.4.3" type="github">
  <diagram id="kgpKYQtTHZ0yAKxKKP6v" name="Page-1">
    <mxGraphModel dx="946" dy="518" grid="1" gridSize="10" guides="1" tooltips="1" connect="1" arrows="1" fold="1" page="1" pageScale="1" pageWidth="850" pageHeight="1100" math="0" shadow="0">
      <root>
        <mxCell id="0" />
        <mxCell id="1" parent="0" />
        <mxCell id="8wa6HRDUMQK075qBDo5b-2" value="User Browser" style="whiteSpace=wrap;html=1;shape=mxgraph.basic.document" vertex="1" parent="1">
          <mxGeometry x="50" y="270" width="80" height="70" as="geometry" />
        </mxCell>
        <mxCell id="8wa6HRDUMQK075qBDo5b-3" value="Facebook" style="whiteSpace=wrap;html=1;shape=mxgraph.basic.document" vertex="1" parent="1">
          <mxGeometry x="340" y="30" width="80" height="60" as="geometry" />
        </mxCell>
        <mxCell id="8wa6HRDUMQK075qBDo5b-4" value="Google" style="whiteSpace=wrap;html=1;shape=mxgraph.basic.document" vertex="1" parent="1">
          <mxGeometry x="340" y="100" width="80" height="60" as="geometry" />
        </mxCell>
        <mxCell id="8wa6HRDUMQK075qBDo5b-5" value="Cognito" style="whiteSpace=wrap;html=1;shape=mxgraph.basic.document" vertex="1" parent="1">
          <mxGeometry x="340" y="170" width="80" height="60" as="geometry" />
        </mxCell>
        <mxCell id="8wa6HRDUMQK075qBDo5b-6" value="" style="endArrow=classic;html=1;exitX=0.5;exitY=0;exitDx=0;exitDy=0;exitPerimeter=0;entryX=0;entryY=0.5;entryDx=0;entryDy=0;entryPerimeter=0;" edge="1" parent="1" source="8wa6HRDUMQK075qBDo5b-2" target="8wa6HRDUMQK075qBDo5b-3">
          <mxGeometry width="50" height="50" relative="1" as="geometry">
            <mxPoint x="400" y="270" as="sourcePoint" />
            <mxPoint x="450" y="220" as="targetPoint" />
            <Array as="points">
              <mxPoint x="120" y="80" />
            </Array>
          </mxGeometry>
        </mxCell>
        <mxCell id="8wa6HRDUMQK075qBDo5b-7" value="" style="endArrow=classic;html=1;entryX=-0.012;entryY=0.667;entryDx=0;entryDy=0;entryPerimeter=0;" edge="1" parent="1" target="8wa6HRDUMQK075qBDo5b-4">
          <mxGeometry width="50" height="50" relative="1" as="geometry">
            <mxPoint x="100" y="270" as="sourcePoint" />
            <mxPoint x="350" y="70" as="targetPoint" />
            <Array as="points">
              <mxPoint x="130" y="90" />
            </Array>
          </mxGeometry>
        </mxCell>
        <mxCell id="8wa6HRDUMQK075qBDo5b-8" value="" style="endArrow=classic;html=1;entryX=0;entryY=0.5;entryDx=0;entryDy=0;entryPerimeter=0;" edge="1" parent="1" target="8wa6HRDUMQK075qBDo5b-5">
          <mxGeometry width="50" height="50" relative="1" as="geometry">
            <mxPoint x="110" y="270" as="sourcePoint" />
            <mxPoint x="360" y="80" as="targetPoint" />
            <Array as="points">
              <mxPoint x="140" y="100" />
            </Array>
          </mxGeometry>
        </mxCell>
        <mxCell id="8wa6HRDUMQK075qBDo5b-9" value="Login and get Id Token&lt;br&gt;Access Token" style="text;html=1;align=center;verticalAlign=middle;resizable=0;points=[];autosize=1;" vertex="1" parent="1">
          <mxGeometry x="120" y="200" width="140" height="30" as="geometry" />
        </mxCell>
        <mxCell id="8wa6HRDUMQK075qBDo5b-11" value="Backend API" style="whiteSpace=wrap;html=1;shape=mxgraph.basic.document" vertex="1" parent="1">
          <mxGeometry x="690" y="280" width="80" height="70" as="geometry" />
        </mxCell>
        <mxCell id="8wa6HRDUMQK075qBDo5b-12" value="" style="endArrow=classic;html=1;exitX=0.5;exitY=0;exitDx=0;exitDy=0;exitPerimeter=0;entryX=0;entryY=0.5;entryDx=0;entryDy=0;entryPerimeter=0;" edge="1" parent="1" target="8wa6HRDUMQK075qBDo5b-11">
          <mxGeometry width="50" height="50" relative="1" as="geometry">
            <mxPoint x="130" y="320" as="sourcePoint" />
            <mxPoint x="380" y="110" as="targetPoint" />
            <Array as="points">
              <mxPoint x="350" y="320" />
            </Array>
          </mxGeometry>
        </mxCell>
        <mxCell id="8wa6HRDUMQK075qBDo5b-13" value="Pass Access Token and Refresh Token" style="text;html=1;align=center;verticalAlign=middle;resizable=0;points=[];autosize=1;" vertex="1" parent="1">
          <mxGeometry x="280" y="330" width="220" height="20" as="geometry" />
        </mxCell>
        <mxCell id="8wa6HRDUMQK075qBDo5b-14" value="" style="endArrow=classic;html=1;" edge="1" parent="1">
          <mxGeometry width="50" height="50" relative="1" as="geometry">
            <mxPoint x="720" y="280" as="sourcePoint" />
            <mxPoint x="440" y="140" as="targetPoint" />
          </mxGeometry>
        </mxCell>
        <mxCell id="8wa6HRDUMQK075qBDo5b-15" value="Use Access token to &lt;br&gt;interact with services" style="text;html=1;align=center;verticalAlign=middle;resizable=0;points=[];autosize=1;" vertex="1" parent="1">
          <mxGeometry x="545" y="165" width="130" height="30" as="geometry" />
        </mxCell>
        <mxCell id="8wa6HRDUMQK075qBDo5b-16" value="Require:&lt;br&gt;Client Id&lt;br&gt;&amp;nbsp;Secret Key" style="text;html=1;align=center;verticalAlign=middle;resizable=0;points=[];autosize=1;" vertex="1" parent="1">
          <mxGeometry x="10" y="210" width="80" height="50" as="geometry" />
        </mxCell>
        <mxCell id="8wa6HRDUMQK075qBDo5b-17" value="" style="endArrow=classic;html=1;entryX=0.5;entryY=1;entryDx=0;entryDy=0;entryPerimeter=0;" edge="1" parent="1" target="8wa6HRDUMQK075qBDo5b-2">
          <mxGeometry width="50" height="50" relative="1" as="geometry">
            <mxPoint x="730" y="350" as="sourcePoint" />
            <mxPoint x="780" y="300" as="targetPoint" />
            <Array as="points">
              <mxPoint x="400" y="490" />
            </Array>
          </mxGeometry>
        </mxCell>
        <mxCell id="8wa6HRDUMQK075qBDo5b-18" value="Pass the data to browser" style="text;html=1;align=center;verticalAlign=middle;resizable=0;points=[];autosize=1;" vertex="1" parent="1">
          <mxGeometry x="330" y="430" width="150" height="20" as="geometry" />
        </mxCell>
      </root>
    </mxGraphModel>
  </diagram>
</mxfile>
